<?xml version="1.0" standalone="no"?>
<!DOCTYPE svg PUBLIC "-//W3C//DTD SVG 20010904//EN"
 "http://www.w3.org/TR/2001/REC-SVG-20010904/DTD/svg10.dtd">
<svg version="1.0" xmlns="http://www.w3.org/2000/svg"
 width="700.000000pt" height="700.000000pt" viewBox="0 0 700.000000 700.000000"
 preserveAspectRatio="xMidYMid meet">
<metadata>
Created by potrace 1.14, written by Peter Selinger 2001-2017
</metadata>
<g transform="translate(0.000000,700.000000) scale(0.100000,-0.100000)"
fill="#000000" stroke="none">
<path d="M1324 5147 c-16 -18 -139 -190 -274 -382 -210 -301 -245 -355 -245
-386 0 -43 18 -67 63 -86 68 -28 75 -20 361 388 285 408 285 408 235 468 -21
26 -33 31 -69 31 -36 0 -48 -5 -71 -33z"/>
<path d="M5066 5149 c-43 -51 -36 -81 50 -205 94 -134 119 -161 155 -169 32
-7 83 16 99 44 25 47 12 83 -70 201 -98 141 -119 160 -170 160 -30 0 -43 -6
-64 -31z"/>
<path d="M1622 4953 c-37 -38 -509 -715 -522 -748 -14 -37 -3 -71 32 -100 36
-30 76 -32 112 -4 20 16 356 485 510 713 36 53 35 99 -3 137 -40 39 -92 40
-129 2z"/>
<path d="M4779 4951 c-44 -44 -40 -84 19 -169 274 -400 480 -683 504 -693 62
-25 128 21 128 90 0 31 -37 88 -255 401 -141 201 -268 373 -283 382 -41 27
-79 23 -113 -11z"/>
<path d="M1935 4764 c-21 -10 -105 -123 -287 -382 -141 -202 -257 -377 -258
-387 -5 -43 1 -63 26 -89 32 -31 90 -35 123 -8 12 9 136 181 276 382 210 300
255 370 255 398 0 44 -14 68 -50 87 -36 19 -47 19 -85 -1z"/>
<path d="M4513 4766 c-38 -17 -53 -43 -53 -89 0 -25 18 -59 76 -143 107 -153
119 -164 168 -164 60 1 96 37 96 97 0 27 -132 229 -183 280 -29 29 -65 36
-104 19z"/>
<path d="M5434 4684 c-48 -24 -67 -80 -42 -127 26 -51 171 -248 188 -257 10
-6 35 -10 55 -10 50 0 85 36 85 88 0 33 -14 60 -91 170 -69 99 -98 133 -121
141 -38 14 -37 14 -74 -5z"/>
<path d="M3080 4635 c-247 -39 -482 -158 -658 -334 -396 -396 -459 -1020 -150
-1487 161 -244 413 -425 693 -499 123 -33 344 -45 476 -25 557 81 981 555
1006 1126 4 82 1 162 -6 214 -17 111 -69 269 -128 383 -232 448 -731 700
-1233 622z"/>
<path d="M4854 4280 c-47 -19 -68 -85 -42 -133 26 -51 171 -248 188 -257 59
-32 140 16 140 83 0 27 -19 62 -89 162 -105 151 -132 171 -197 145z"/>
<path d="M1416 3024 c-25 -26 -31 -46 -26 -89 1 -10 117 -185 258 -387 270
-385 290 -408 349 -393 42 10 73 49 73 92 0 34 -29 81 -255 403 -140 201 -264
373 -276 383 -33 26 -91 22 -123 -9z"/>
<path d="M4998 3040 c-16 -10 -162 -210 -186 -257 -43 -79 36 -167 118 -133
44 18 210 261 210 307 0 67 -84 116 -142 83z"/>
<path d="M1128 2821 c-52 -46 -46 -80 38 -202 109 -159 128 -179 176 -179 30
0 46 7 69 29 49 50 42 79 -56 218 -47 67 -97 131 -112 142 -36 29 -76 27 -115
-8z"/>
<path d="M5288 2830 c-15 -11 -66 -76 -113 -143 -98 -139 -105 -168 -56 -218
37 -37 88 -39 125 -6 14 12 62 74 106 137 64 93 80 122 80 152 0 76 -85 123
-142 78z"/>
<path d="M863 2635 c-39 -17 -67 -67 -58 -103 6 -26 464 -687 519 -749 23 -28
35 -33 71 -33 36 0 48 5 69 31 50 59 49 61 -229 459 -141 201 -265 373 -278
382 -33 25 -59 28 -94 13z"/>
<path d="M5578 2630 c-16 -10 -162 -210 -186 -257 -40 -75 34 -161 115 -133
29 10 77 71 187 234 53 79 21 166 -61 166 -21 0 -46 -5 -55 -10z"/>
<path d="M4638 2533 c-14 -16 -60 -77 -102 -137 -81 -117 -93 -157 -61 -203
20 -28 75 -46 106 -34 31 12 44 26 139 161 82 118 93 148 68 193 -18 34 -40
46 -84 47 -31 0 -46 -6 -66 -27z"/>
<path d="M1471 2334 c-25 -21 -31 -33 -31 -66 0 -34 13 -59 87 -165 48 -68 96
-131 107 -139 35 -24 84 -18 117 15 38 38 39 84 3 137 -99 146 -158 226 -174
234 -33 18 -77 11 -109 -16z"/>
<path d="M4948 2350 c-14 -9 -77 -93 -172 -234 -36 -53 -35 -99 3 -137 31 -30
61 -36 104 -20 21 8 71 73 181 235 36 53 35 99 -3 137 -31 30 -79 38 -113 19z"/>
<path d="M5255 2150 c-28 -11 -50 -38 -139 -164 -86 -124 -93 -154 -50 -205
21 -25 34 -31 64 -31 51 0 72 19 170 160 60 87 80 123 80 148 0 44 -14 68 -50
87 -32 17 -46 18 -75 5z"/>
</g>
</svg>
