<svg xmlns="http://www.w3.org/2000/svg" xmlns:xlink="http://www.w3.org/1999/xlink">
	<symbol id="vk" viewBox="0 0 96.496 96.496">
		<path d="m92.499 65.178c-2.873-3.446-6.254-6.387-9.453-9.51-2.886-2.815-3.068-4.448-.748-7.697 2.532-3.546 5.255-6.956 7.81-10.486 2.385-3.299 4.823-6.589 6.078-10.539.796-2.513.092-3.623-2.485-4.063-.444-.077-.903-.081-1.355-.081l-15.289-.018c-1.883-.028-2.924.793-3.59 2.462-.899 2.256-1.826 4.51-2.897 6.687-2.43 4.936-5.144 9.707-8.949 13.747-.839.891-1.767 2.017-3.169 1.553-1.754-.64-2.271-3.53-2.242-4.507l-.015-17.647c-.34-2.521-.899-3.645-3.402-4.135l-15.882.003c-2.12.0-3.183.819-4.315 2.145-.653.766-.85 1.263.492 1.517 2.636.5 4.121 2.206 4.515 4.849.632 4.223.588 8.463.224 12.703-.107 1.238-.32 2.473-.811 3.629-.768 1.817-2.008 2.187-3.637 1.069-1.475-1.012-2.511-2.44-3.525-3.874-3.809-5.382-6.848-11.186-9.326-17.285-.716-1.762-1.951-2.83-3.818-2.859-4.587-.073-9.175-.085-13.762.004-2.76.052-3.583 1.392-2.459 3.894 4.996 11.113 10.557 21.917 17.816 31.759 3.727 5.051 8.006 9.51 13.534 12.67 6.265 3.582 13.009 4.66 20.112 4.328 3.326-.156 4.325-1.021 4.479-4.336.104-2.268.361-4.523 1.48-6.561 1.098-2 2.761-2.381 4.678-1.137.959.623 1.767 1.416 2.53 2.252 1.872 2.048 3.677 4.158 5.62 6.137 2.437 2.48 5.324 3.945 8.954 3.646l14.052.003c2.264-.148 3.438-2.924 2.138-5.451-.913-1.77-2.111-3.346-3.383-4.871z"/>
	</symbol>
	<symbol id="telegram" viewBox="0 0 512 512">
		<path d="m512 50.49-80.98 408.28s-11.32 28.31-42.47 14.72L200.84 329.82c25.23-22.68 220.96-198.65 229.52-206.63 13.23-12.35 5.02-19.7-10.36-10.36l-289.11 183.6-111.54-37.55s-17.56-6.23-19.25-19.82c-1.7-13.59 19.82-20.95 19.82-20.95l454.71-178.38s37.37-16.42 37.37 10.76z"/>
	</symbol>
	<symbol id="whatsap" viewBox="0 0 512 512">
		<path d="m256 0C115.390625.0.0 115.390625.0 256c0 46.40625 12.511719 91.582031 36.238281 131.105469L0 512l124.894531-36.238281C164.417969 499.488281 209.59375 512 256 512c140.609375.0 256-115.390625 256-256S396.609375.0 256 0zm160.054688 364.167969-11.910157 11.910156c-16.851562 16.851563-55.605469 15.515625-80.507812 10.707031-82.800781-15.992187-179.335938-109.5625-197.953125-190.59375-9.21875-40.140625-4.128906-75.039062 9.183594-88.355468l11.910156-11.910157c6.574218-6.570312 17.253906-6.5625 23.820312.0l47.648438 47.652344c3.179687 3.179687 4.921875 7.394531 4.921875 11.90625s-1.742188 8.730469-4.921875 11.898437l-11.90625 11.921876c-13.125 13.15625-13.125 34.527343.0 47.652343l78.683594 77.648438c13.164062 13.164062 34.46875 13.179687 47.652343.0l11.910157-11.90625c6.148437-6.183594 17.632812-6.203125 23.832031.0l47.636719 47.636719c6.46875 6.441406 6.714843 17.113281.0 23.832031zm0 0"/>
	</symbol>
	<symbol id="hotel" viewBox="0 0 379.999 379.999">
		<path d="M303.837 353.359V88.866h7.697V46.119H68.464v42.747h7.697v264.493H61.758v26.64H318.24v-26.64H303.837zM169.787 102.806h40.426v40.424h-40.426V102.806zm0 67.546h40.426v40.423h-40.426V170.352zm-65.049-67.546h40.424v40.424h-40.424V102.806zm0 67.546h40.424v40.423h-40.424V170.352zm124.51 104.625v78.383h-78.496v-78.383H140c0-27.614 22.386-50 50-50s50 22.386 50 50H229.248zm46.013-64.203h-40.424v-40.423h40.424v40.423zm0-67.544h-40.424v-40.424h40.424V143.23z"/><path d="M144.448 40h91.104c11.045.0 19.999-8.955 19.999-20 0-11.047-8.954-20-19.999-20h-91.104c-11.045.0-19.999 8.953-19.999 20C124.449 31.045 133.403 40 144.448 40zM221.817 9.246h4.775v17.041h8.363v3.994h-13.139V9.246zm-16.666.0h12.983v3.902h-8.208v4.369h7.74v3.869h-7.74v4.994h8.645v3.9h-13.42V9.246zm-18.693.0h16.166v3.994h-5.742v17.041h-4.775V13.24h-5.648V9.246zM175.815 8.902c6.461.0 9.987 4.838 9.987 10.643.0 6.898-4.183 11.08-10.33 11.08-6.242.0-9.894-4.713-9.894-10.705C165.579 13.615 169.604 8.902 175.815 8.902zM145.043 9.246h4.775v8.084h7.834V9.246h4.743v21.035h-4.743V21.48h-7.834v8.801h-4.775V9.246z"/><path d="M175.721 26.848c3.215.0 5.057-3.059 5.057-7.146.0-3.775-1.811-7.022-5.088-7.022-3.214.0-5.087 3.059-5.087 7.147.0 4.118 1.93599999999998 7.021 5.118 7.021z"/>
	</symbol>
	<symbol id="zamok" viewBox="0 0 330 330">
		<path d="M165 330c63.411.0 115-51.589 115-115 0-29.771-11.373-56.936-30-77.379V85c0-46.869-38.131-85-85-85S80.001 38.131 80.001 85v52.619C61.373 158.064 50 185.229 50 215c0 63.411 51.589 115 115 115zm15-110.014V240c0 8.284-6.716 15-15 15s-15-6.716-15-15v-20.014c-6.068-4.565-10-11.824-10-19.986.0-13.785 11.215-25 25-25s25 11.215 25 25C190 208.162 186.068 215.421 180 219.986zM110.001 85c0-30.327 24.673-55 54.999-55 30.327.0 55 24.673 55 55v29.029C203.652 105.088 184.91 1e2 165 1e2c-19.909.0-38.651 5.088-54.999 14.028V85z"/>
	</symbol>
	<symbol id="plane" viewBox="0 0 469.333 469.333">
		<path d="m410.33 241h92.1L448 194.27A55 55 0 00412.18 181H391v40.67A19.35 19.35.0 00410.33 241z"/><path d="m410.33 271A49.39 49.39.0 01361 221.67V181H15A15 15 0 001.58 202.71l49 97.89A54.69 54.69.0 0099.72 331H477a35 35 0 0035-35v-25z"/><path d="m177.87 151H315.2L239.5 26.44a55.31 55.31.0 00-47-26.44H127a15 15 0 00-13.43 21.68z"/><path d="m113.57 490.32A15 15 0 00127 512h65.5a55.31 55.31.0 0047-26.44L315.2 361H177.87z"/><path d="m74 103A34.85 34.85.0 0041.5 81H15A15 15 0 000 96v55h93.16z"/>
	</symbol>
	<symbol id="vopros" viewBox="0 0 32 32">
		<path d="m16 0C10.4858.0 6 4.4858 6 10s4.4858 10 10 10 10-4.4858 10-10S21.5142.0 16 0zm0 16c-.5522.0-1-.4477-1-1s.4478-1 1-1 1 .4477 1 1-.4477 1-1 1zm1.6133-5.2573c-.3486.1709-.5571.4648-.5571.7866v.5132c0 .5522-.4478 1-1 1s-1-.4478-1-1v-.5132c0-1.0864.6436-2.0767 1.6792-2.5835.5527-.2695 1.0225-.9224.8281-1.7729-.1265-.5571-.5879-1.0122-1.1475-1.1338-.8887-.1924-1.5493.3384-1.791.9116-.2139.5093-.7993.7485-1.3096.5332-.5088-.2139-.7476-.8003-.5332-1.3096.6636-1.5767 2.3687-2.46 4.0576-2.0894 1.3237.2866 2.3735 1.3242 2.6738 2.6431.3735 1.6353-.4077 3.2861-1.9004 4.0146z"/><path d="m23.99 18.94C21.87 20.85 19.07 22 16 22s-5.87-1.15-7.99-3.06C5.05 20.41 3 23.47 3 27v4c0 .55.45 1 1 1h5v-5c0-.5522.4478-1 1-1s1 .4478 1 1v5h10v-5c0-.5522.4478-1 1-1s1 .4478 1 1v5h5c.55.0 1-.45 1-1v-4c0-3.53-2.05-6.59-5.01-8.06z"/>
	</symbol>
	<symbol id="dengi" viewBox="0 0 60 60">
		<path d="m2 28.011h16.092l2.057-3.708H2z"/><path d="m51.887 28.011h5.827v-3.708h-3.77z"/><ellipse cx="51.039" cy="46.282" rx="1.077" ry="1.071"/><path d="m47.948 53.662c-2.934.0-5.32-1.976-5.32-4.405V43.45c0-2.428 2.387-4.404 5.32-4.404h9.767v-8.892H2V60h55.715v-6.338z"/><path d="m44.781 43.45v5.807c0 1.226 1.45 2.262 3.167 2.262h9.737v-10.33h-9.737c-1.716.0-3.167 1.036-3.167 2.261zm6.258-.382c1.782.0 3.231 1.442 3.231 3.214s-1.449 3.214-3.231 3.214-3.231-1.442-3.231-3.214 1.45-3.214 3.231-3.214z"/><path d="m35.412 24.129c-2.156.0-3.91 1.743-3.915 3.887l3.489.001h4.342c-.004-2.144-1.759-3.888-3.916-3.888z"/><path d="m44.188 3.268L38.672.284c-1.072-.581-2.427-.2-3.017.507l-2.525 4.55z"/><ellipse cx="41.81" cy="15.057" rx="1.077" ry="1.071"/><path d="m56.866 10.126-9.685-5.239-15.4 2.888-11.23 20.237 8.792.003c.005-3.325 2.725-6.029 6.069-6.029 3.345.0 6.066 2.706 6.069 6.033l7.939.003 8.311-14.978c.582-1.044.185-2.419-.865-2.918zM41.81 18.271c-1.782.0-3.231-1.442-3.231-3.214s1.449-3.214 3.231-3.214 3.231 1.442 3.231 3.214-1.45 3.214-3.231 3.214z"/>
	</symbol>
	<symbol id="sex" viewBox="0 0 512.414 512.414">
		<path d="m372.735 353.051c-.852-22.382-32.936-22.365-33.779.0v70.42h33.779z"/><path d="m196.717 314.582c0 .205-.004.409-.012.613.48 97.312 113.952 172.474 152.235 195.062 3.625 2.139 8.105 2.181 11.761.096 9.75-5.559 24.335-14.506 40.435-26.317 2.588-1.898 5.717-2.928 8.927-2.928h63.424c9.688.0 15.197-11.082 9.349-18.806l-16.091-21.252c-4.185-5.528-4.059-13.2.308-18.586 30.099-37.132 45.36-75.703 45.36-114.639.0-41.005-33.403-74.366-74.462-74.366-20.338.0-41.342 6.031-55.495 20.628-7.872 8.119-16.71 12.679-28.019 12.679-11.423.0-20.092-4.515-28.05-12.713-14.151-14.576-35.141-20.594-55.463-20.594h-.206c-19.155.0-36.411 7.135-49.955 20.644-15.281 15.242-24.046 37.286-24.046 60.479zm112.871 108.892v-70.423c0-20.374 13.245-37.701 31.573-43.855v-4.518c.722-19.462 28.652-19.447 29.368.0v4.518c18.328 6.154 31.574 23.481 31.574 43.855v70.42h.548c19.462.722 19.447 28.652.0 29.368H309.65c-19.426-.718-19.466-28.577-.062-29.365z"/><path d="m237.795 129.352H110.139v25.673h134.666v-18.664c0-3.865-3.144-7.009-7.01-7.009z"/><path d="m200.196 232.767c12.583-12.551 27.904-21.348 44.609-25.848v-21.895H110.139v13.589c-.643 20.204-29.115 20.528-30 .424V76.153c0-8.077 6.207-15.027 14.275-15.407 8.614-.406 15.725 6.458 15.725 14.983v23.622h127.656c20.44.0 37.01 16.57 37.01 37.01v63.935c0 1.104-.127 2.177-.354 3.213 8.832.256 17.465 1.609 25.753 3.983 24.885-32.647 44.05-72.946 44.05-117.943.0-49.166-39.899-89.024-89.118-89.024-25.102.0-47.778 10.368-63.974 27.051-10.454 10.768-27.854 10.768-38.309.0-16.195-16.683-38.871-27.051-63.973-27.051-51.664-.138-88.866 43.909-88.866 95.749h-.014c0 48.092 20.381 97.174 50.906 132.638 3.84 4.462 4.077 10.981.524 15.675l-19.024 25.125c-5.821 7.688-.337 18.719 9.306 18.719h88.531c2.47.0 4.888.739 6.94 2.114 12.723 8.526 23.297 14.79 29.855 18.493l.542-.407c1.341-28.96 13.055-56.355 32.616-75.864z"/>
	</symbol>
	<symbol id="scroltop" viewBox="0 0 24 24">
		<path d="m5.6509 11.7588L12 6.3174l6.3491 5.4414a1 1 0 001.3018-1.5176l-7-6a.9972.9972.0 00-1.3018.0l-7 6a1 1 0 001.3018 1.5176z"/><path d="m12.6509 12.2412a.9972.9972.0 00-1.3018.0l-7 6a1 1 0 001.3018 1.5176L12 14.3174l6.3491 5.4414a1 1 0 001.3018-1.5176z"/>
	</symbol>
</svg>